<mxfile host="app.diagrams.net" modified="2024-01-23T18:11:18.021Z" agent="Mozilla/5.0 (Macintosh; Intel Mac OS X 10_15_7) AppleWebKit/537.36 (KHTML, like Gecko) Chrome/120.0.0.0 Safari/537.36" etag="03AeWy_EDKECu2yp-hDs" version="22.1.18" type="github">
  <diagram name="第 1 页" id="_XUrh3UBLOdG2CLPe91Y">
    <mxGraphModel dx="1194" dy="606" grid="1" gridSize="10" guides="1" tooltips="1" connect="1" arrows="1" fold="1" page="1" pageScale="1" pageWidth="827" pageHeight="1169" math="0" shadow="0">
      <root>
        <mxCell id="0" />
        <mxCell id="1" parent="0" />
        <mxCell id="_SiXs5mkcGYst8uzlgKZ-1" value="当前线程&lt;br&gt;（当前任务）" style="ellipse;whiteSpace=wrap;html=1;aspect=fixed;" vertex="1" parent="1">
          <mxGeometry x="414" y="200" width="80" height="80" as="geometry" />
        </mxCell>
        <mxCell id="_SiXs5mkcGYst8uzlgKZ-2" value="线程1&lt;br&gt;（任务1）" style="ellipse;whiteSpace=wrap;html=1;aspect=fixed;" vertex="1" parent="1">
          <mxGeometry x="240" y="130" width="80" height="80" as="geometry" />
        </mxCell>
        <mxCell id="_SiXs5mkcGYst8uzlgKZ-3" value="线程2&lt;br&gt;（任务2）" style="ellipse;whiteSpace=wrap;html=1;aspect=fixed;" vertex="1" parent="1">
          <mxGeometry x="240" y="270" width="80" height="80" as="geometry" />
        </mxCell>
      </root>
    </mxGraphModel>
  </diagram>
</mxfile>
